<?xml version="1.0" encoding="UTF-8"?>
<svg width="914px" height="573px" viewBox="0 0 914 573" version="1.1" xmlns="http://www.w3.org/2000/svg" xmlns:xlink="http://www.w3.org/1999/xlink">
    <!-- Generator: Sketch 52.1 (67048) - http://www.bohemiancoding.com/sketch -->
    <title>Blank_US_Map_(states_only)</title>
    <desc>Created with Sketch.</desc>
    <g id="Page-1" stroke="none" stroke-width="1" fill="none" fill-rule="evenodd">
        <g id="Blank_US_Map_(states_only)" fill="#FFFFFF">
            <g id="outlines">
                <polygon id="AL" fill-opacity="0.5" points="614.5 460.4 615.1 460.6 616.4 457.9 617.9 453.5 620.2 454.1 623.3 460.1 623.3 461.1 620.6 463 623.3 463.3 628.5 460.8 628.2 453.2 625.7 451.4 623.7 449.4 624.1 445.4 634.6 443.9 660.3 441 667 440.4 672.6 440.5 672.1 438.3 670.6 437.5 669.7 436.4 670.7 433.8 670.3 428.6 668.7 424.1 669.5 419 671.2 414.2 671 412.5 669.2 411.8 668.7 408.2 666 404.8 664 398.3 662.6 391.6 660.8 386.6 657 370.6 653.5 362.7 652.7 357.1 652.8 354.9 643.8 355.7 620.4 357.9 608.2 358.7 608 365.1 608.2 381.8 607.5 412.8 607.2 426.9 610 445.7 611.6 460.4"></polygon>
                <polygon id="AR" fill-opacity="0.5" points="573.3 340.1 566.9 339.4 567.8 336.3 570.9 333.7 571.5 331.4 569.7 328.5 537.8 329.7 514.5 330.4 490.9 330.7 492.4 337.6 492.5 346.1 493.9 357 494.2 395.2 496.3 396.8 499.3 395.6 502.2 396.8 502.6 406.9 527.8 406.7 554.6 405.9 555.5 404 555.2 400.2 553.5 397.1 555 395.7 553.6 393.5 554.3 391.1 555.4 385.2 558.1 382.9 557.3 380.7 561.3 375.1 563.8 374 563.7 372.3 563.2 370.6 566.1 364.8 568.6 363.7 568.8 360.4 570.9 359 571.8 354.9 570.4 350.9 574.6 348.5 574.9 346.4 576.1 342.2 577 339.1"></polygon>
                <polygon id="AZ" fill-opacity="0.5" points="121.1 383.7 120.8 385.2 121.3 386.2 140.2 396.9 152.3 404.5 167 413.1 183.8 423.1 196.1 425.5 221.5 428.2 227.5 388.6 234.5 335.5 238.9 304.5 214.3 300.9 153.6 289.9 153.4 291 150.8 307.5 148.7 311.3 145.9 311.1 144.7 308.5 142.1 308.1 140.9 307 139.8 307.1 137.7 308.8 137.4 315.6 137.1 317.1 136.6 329.6 135.1 332 134.7 335.3 137.5 340.3 138.6 345.8 139.3 346.9 140.4 347.8 140 350.2 138.3 351.4 134.9 353 133.3 354.8 131.7 358.4 131.2 363.3 128.2 366.2 126.3 367.1 126.2 372.9 125.6 374.5 126.1 375.3 130 375.7 129.1 378.7 127.4 381.1 123.7 381.5"></polygon>
                <path d="M108.7,379.9 L89,377.2 L79,375.7 L78.5,373.9 L78.5,364.5 L78.2,361.3 L75.6,357.1 L74.8,354.8 L70.9,350.6 L68,345.9 L65.3,345.7 L62.1,344.9 L61.8,343.9 L63.3,343.3 L62.7,340.1 L61.2,338 L56.4,337.2 L52.5,335.1 L51.4,332.8 L48.8,328 L45.9,324.9 L43,324.9 L39.1,322.8 L34.6,321 L30.4,320.5 L28,317.8 L28.5,315.9 L30.3,308.8 L31.1,306.9 L31.1,304.5 L29.5,303.5 L29,300.6 L27.5,298 L24.1,292.2 L22.8,289.1 L21.3,284.4 L19.7,279.1 L16.5,274.7 L16,271.8 L16.8,267.9 L17.9,267.9 L20,266.3 L21.1,262.7 L20.1,260 L17.4,259.5 L15.5,256.9 L13.4,253.2 L13.2,245 L13.8,243.1 L14.4,240.8 L14.9,238.4 L9.2,232.1 L9.2,230 L9.5,229.5 L9.8,226.3 L8.5,222.3 L6.2,217.5 L3.5,213 L1.7,209.1 L2.7,205.4 L3.3,199.6 L5.1,196.5 L5.4,190 L4.3,186.4 L2.7,182.2 L1.42108547e-14,178 L0.8,174.8 L2.3,170.6 L4.1,169.8 L4.4,168.7 L7.5,166.1 L12.7,154.3 L12.9,146.9 L14.59,142 L53.28,153.8 L78.88,160.4 L70.88,191.7 L62.21,224.8 L74.84,244 L117,306.3 L134.1,332.4 L133.7,335.5 L136.5,340.7 L137.6,346.1 L138.6,347.6 L139.3,348.2 L139.1,349.6 L137.7,350.6 L134.3,352.2 L132.4,354.3 L130.7,358.2 L130.2,362.9 L127.6,365.4 L125.3,366.5 L125.2,372.7 L124.6,374.6 L125.6,376.3 L128.6,376.6 L128.2,378.2 L126.8,380.2 L122.9,380.8 L108.7,379.9 Z M34.8,331 L36.1,332.5 L35.9,333.8 L32.7,333.7 L32.1,332.5 L31.5,331 L34.8,331 Z M36.7,331 L37.9,330.4 L41.5,332.5 L44.6,333.7 L43.7,334.3 L39.2,334.1 L37.6,332.5 L36.7,331 Z M57.4,350.8 L59.2,353.1 L60,354.1 L61.5,354.7 L62.1,353.2 L61.1,351.4 L58.4,349.4 L57.3,349.6 L57.3,350.8 L57.4,350.8 Z M56,359.5 L57.8,362.7 L59,364.6 L57.5,364.8 L56.2,363.6 C56.2,363.6 55.5,362.1 55.5,361.7 C55.5,361.3 55.5,359.5 55.5,359.5 L56,359.5 Z" id="CA" fill-opacity="0.5" fill-rule="nonzero"></path>
                <polygon id="CO" fill-opacity="0.5" points="366.2 229.5 330.2 226 251.1 217.4 248.9 239.5 241.9 289.9 240 303.6 274 307.5 311.5 311.9 346.2 314.9 360.5 315.5"></polygon>
                <polygon id="CT" fill-opacity="0.5" points="838 184.9 841.6 181.7 843.5 179.6 844.3 180.2 847 178.7 852.2 177.6 859.2 174.1 858.6 169.9 857.8 165.5 856.2 159.5 851.9 160.6 830.1 165.3 830.7 168.4 832.2 175.7 832.2 184 831.3 186.1 833 188.3"></polygon>
                <polygon id="DE" fill-opacity="0.5" points="820.4 241.2 819.4 241.7 815.8 239.3 814 234.6 812.1 231 809.8 230 807.7 226.4 808.2 224.4 808.7 222.1 808.8 221 808.2 221.1 806.5 222.1 804.5 223.8 804.3 224.1 805.7 228.2 808 233.8 811.7 249.9 816.7 249.6 822.7 248.5"></polygon>
                <path d="M736.2,439.2 L731,438.5 L730.3,439.3 L731.8,443.7 L731.4,448.9 L727.3,447.9 L727.1,445.1 L723,445.1 L717.7,445.8 L685.3,447.7 L677.1,447.4 L675.4,445.7 L672.9,441.5 L667,441.5 L660.4,442 L625,446.2 L624.7,449 L626.3,450.6 L629.2,452.6 L629.5,461 L632.8,460.4 L638.8,458.3 L644.8,457.8 L649.2,457.2 L656.8,459 L664.9,462.9 L666.5,464.4 L669.4,465.5 L671,467.4 L671.3,470.1 L674.5,468.8 L678.4,468.8 L682,466.9 L685.7,463.3 L688.8,463.5 L689.3,462.4 L688.5,461.4 L688.7,459.5 L692.7,458.7 L695.3,458.7 L698.2,460.2 L702.4,461.7 L704.8,465.4 L707.5,466.4 L708.6,469.8 L712,471.4 L713.6,474 L715.5,474.6 L720.7,475.9 L722,479 L725,482.7 L725,492.2 L723.5,496.9 L723.8,499.6 L725.1,504.4 L726.9,508.4 L727.7,507.9 L729.2,503.4 L726.6,502.4 L726.3,501.8 L727.9,501.2 L732.4,502.2 L732.6,503.8 L729.4,509.3 L727.3,511.7 L730.9,515.4 L733.5,518.5 L736.4,523.8 L739.3,527.7 L741.4,532.7 L743.2,533 L744.8,530.9 L746.6,532 L749.2,536 L749.8,539.6 L752.9,544 L753.7,542.7 L757.6,543 L761.2,545.3 L764.6,550.5 L765.4,553.9 L765.7,556.8 L766.8,557.8 L768.1,558.3 L770.5,557.3 L772,555.7 L775.9,555.5 L779,554 L781.7,550.8 L781.2,548.9 L780.9,546.5 L781.5,544.6 L781.2,542.7 L783.6,541.4 L783.9,538 L783.3,536.2 L782.8,524.2 L781.5,516.6 L777,508.4 L773.4,502.6 L770.8,497.3 L767.9,494.4 L765,487 L765.7,485.6 L766.8,484.3 L765.2,481.4 L761.2,477.7 L756.4,472.2 L752.7,465.9 L747.4,456.5 L743.7,446.8 L741.4,439.5 L736.2,439.2 Z M753.9,571.9 L756.3,571.3 L757.6,571.1 L759.1,568.8 L761.4,567.2 L762.7,567.7 L764.4,568 L764.8,569.1 L761.3,570.3 L757.1,571.8 L754.8,573 L753.9,571.9 Z M767.4,566.9 L768.6,568 L771.3,565.9 L776.6,561.7 L780.3,557.8 L782.8,551.2 L783.8,549.5 L784,546.1 L783.3,546.6 L782.3,549.4 L780.8,554 L777.6,559.3 L773.2,563.5 L769.8,565.4 L767.4,566.9 Z" id="FL" fill-rule="nonzero"></path>
                <polygon id="GA" fill-opacity="0.5" points="736.2 438.2 730.6 437.5 729.2 439.1 730.8 443.8 730.5 447.7 728.3 447.1 728.1 444.1 722.9 444.1 717.6 444.8 685.3 446.7 677.6 446.4 676.2 445.2 673.7 440.9 672.9 437.6 671.3 436.7 670.8 436.2 671.7 434 671.3 428.5 669.7 424 670.5 419.1 672.2 414.3 672 411.8 670.1 411.1 669.7 407.9 666.9 404.4 665 398.2 663.5 391.2 661.8 386.4 658 370.4 654.5 362.4 653.7 357.1 653.8 354.8 657.1 354.5 670.7 352.9 689.3 350.9 695.6 349.8 696.1 351.2 693.9 352.1 693 354.3 693.4 356.3 694.8 357.9 699.1 360.6 702.3 360.5 705.5 365.2 706.1 366.8 708.4 369.6 708.9 371.3 713.6 373.1 716.6 375.3 718.9 378.3 721.2 379.6 723.2 381.4 724.6 384.1 726.7 386 730.8 387.8 733.5 393.8 735.2 398.9 738 399.6 740.1 401.5 742.1 407.2 745 408.8 746.7 408 747.1 409.2 743.8 415.4 744.3 418 742.8 422.2 740.5 432.2 741.3 438.5"></polygon>
                <polygon id="IA" fill-opacity="0.5" points="542.8 177.6 544.9 179.7 545.2 180.4 543.2 183.4 543.5 187.4 546.1 191.5 549.2 193.1 551.6 193.4 552.5 195.2 552.7 197.6 555.2 198.6 556.1 199.7 556.6 201.3 560.4 204.6 561 206.5 560.3 209.5 558.6 213.2 558 215.6 555.9 217.2 554.3 217.7 548.6 219.2 547 224 547.8 225.8 549.5 227.3 549.3 230.8 547.4 232.2 546.7 234 546.7 236.4 545.3 236.8 543.6 238.2 543.1 239.9 543.5 241.6 542.2 242.6 539.9 239.9 538.5 237.1 530.2 237.9 520.2 238.5 471 239.7 469.4 235.4 469 228.7 467.6 224.5 466.9 219.3 464.7 215.6 463.7 211 461 203.2 459.9 197.6 458.5 195.7 457.2 192.8 458.9 189 460.1 182.9 457.4 180.7 457.1 178.3 457.8 175.9 459.6 175.6 520.7 175 541.9 174.3"></polygon>
                <polygon id="ID" fill-opacity="0.5" points="161.3 21.63 156.5 39.04 152 59.9 148.6 76.12 148.2 85.79 149.4 90.23 152.9 92.89 152.7 96.8 148.8 101.2 144.3 107.8 143.4 110.7 142.2 111.8 140.4 112.6 136.1 117.9 135.7 121 135.3 122.1 135.9 123.1 138.5 123 139.6 125.3 137.2 131.1 136 135.3 127.2 170.6 147.9 175.1 187.4 183 222.2 189.1 227.1 159.9 230.9 135.8 228.2 133.4 227.8 130.8 227 129.7 224.9 130.7 224.2 133.3 221 133.8 217.1 132.2 213.3 132.3 210.8 133 207.4 131.5 205 131.7 202.6 133.7 200.6 132.6 199.9 128.6 200.6 125.7 198.1 122.8 194.8 120.2 192.1 107.1 192 102.4 191.7 102.3 191.5 102.7 186.4 106.2 184.7 106 181.8 102.6 181.6 99.5 188.6 82.37 188.2 80.43 184.8 79.28 184.2 78.1 181.6 74.64 177 64.41 173.8 62.88 171.8 57.93 173.1 53.3 169.9 45.72 174.3 24.2"></polygon>
                <polygon id="IL" fill-opacity="0.5" points="604.7 208.3 603.9 205.7 602.6 202 601 200.2 599.5 197.6 599.1 192.1 583.2 193.9 565.8 194.9 553.5 194.9 553.7 197 555.9 197.9 557 199.3 557.4 200.7 561.3 204.1 562 206.5 561.3 209.8 559.6 213.5 558.8 216.2 556.4 218.1 554.5 218.7 549.3 220 548 224.1 548.6 225.2 550.5 227 550.3 231.3 548.2 232.9 547.7 234.2 547.7 237 545.9 237.6 544.5 238.8 544.1 240 544.5 242 542.9 243.3 542 246.1 542.3 250 544.6 257 551.6 264.6 557.3 268.3 557.3 272.7 558 273.9 564.6 274.5 567.3 275.9 566.6 279.4 564.4 285.6 563.6 288.6 565.6 292.3 572 297.6 576.8 298.4 579 303.5 581 306.9 580.1 309.7 581.6 313.5 583.3 315.6 584.9 315.3 585.9 313.1 588.3 311.4 591.1 310.4 597.2 312.9 597.7 312.7 597.7 311.6 596.5 308.9 596.9 306.1 599.3 304.5 602.7 303.3 602.2 302 601.4 300 602.6 298.7 603.6 296 603.6 292 604 287.1 606.5 284.1 608.3 280.3 610.8 276.3 610.3 271 608.5 267.8 608.2 264.5 609 259.2 608.3 252 607.2 236.2 605.8 220.9 604.9 209.2"></polygon>
                <polygon id="IN" fill-opacity="0.5" points="608.9 210.1 610.4 211.1 611.5 210.8 613.6 208.9 616.1 207.1 630.4 206 648.8 204.2 650.4 219.7 655.3 262.3 654.7 265.2 656 266.8 656.2 268.1 653.9 269.7 650.3 271.4 647.1 271.8 646.6 276.6 641.9 280.2 639 284.2 639.2 286.6 638.7 288 635.2 288 633.8 286.3 628.6 289.3 628.8 292.4 627.9 292.6 627.4 291.7 625 290 621.4 291.5 620 294.4 618.8 293.8 617.2 292 612.8 292.5 607.1 293.5 604.6 294.8 604.6 292.2 605 287.5 607.3 284.6 609.1 280.7 611.8 276.5 611.3 270.7 609.5 267.6 609.2 264.4 610 259.1 609.3 252 608.4 239.4 605.9 209.3"></polygon>
                <polygon id="KS" fill-opacity="0.5" points="471.9 253.5 428.1 252.9 387.5 251.7 365.8 250.8 361.5 315.6 385.8 316.6 430.5 318.7 476.8 319.3 489.4 319 490.1 284 488.9 272.9 486.4 270.9 484 267.9 481.7 264.3 482.3 261.3 484 259.9 484 257.8 483.2 257.1 480.6 256.9 477.1 253.5"></polygon>
                <polygon id="KY" fill-opacity="0.5" points="593.2 325.8 605.8 325.1 605.9 321 610.2 321 640.6 317.8 685.7 313.5 691.3 309.9 695.2 307.8 695.3 305.9 701.3 298.1 705.4 294.5 707.5 292.1 704.2 290.1 701.7 287.4 698.7 283.6 698.2 281.4 695.6 280 694.7 278.1 694.5 272 691.9 270 690 268.9 689.5 266.6 688.2 266.8 686.2 268 683.7 270.7 681.8 269 679.3 268.5 676.9 269.9 674.6 269.9 672.8 267.9 667.2 267.8 665.4 263.3 662.5 261.8 660.4 262.6 656.2 262.8 655.7 264.9 656.9 266.4 657.2 268.5 654.4 270.5 650.6 272.3 648 272.7 647.5 277.2 642.6 280.8 640 284.5 640.2 286.7 639.3 289 634.8 288.9 633.5 287.6 629.6 289.8 629.8 293.1 627.4 293.7 626.6 292.3 624.9 291.1 622.2 292.2 620.4 295.7 618.2 294.7 616.8 293.1 613.1 293.5 607.5 294.5 604.7 295.8 603.5 299.2 602.5 300.2 604 303.9 599.8 305.3 597.9 306.7 597.5 308.9 598.7 311.3 598.7 313.5 597.1 313.9 591 311.4 588.7 312.3 586.7 313.7 585.9 315.5 587.6 317.9 586.7 319.7 586.6 323 584.2 324.3 582.1 326"></polygon>
                <polygon id="LA" fill-opacity="0.5" points="512.9 479.9 521 479.6 531.3 483.2 537.8 484.3 541.5 482.8 544.7 483.9 547.9 484.9 548.7 482.8 545.5 481.7 542.9 482.2 540.2 480.6 541 479.1 544.1 478.1 545.9 479.6 547.7 478.6 550.9 479.2 552.4 481.6 552.7 483.9 557.2 484.2 559 486 558.2 487.6 556.9 488.4 558.5 490 566.9 493.6 570.5 492.3 571.5 489.9 574.1 489.3 575.9 487.8 577.2 488.8 578 491.7 575.7 492.5 576.3 493.1 579.7 491.8 582 488.4 582.8 487.9 580.7 487.6 581.5 486 581.3 484.5 583.4 484 584.5 482.7 585.1 483.5 585.7 486.6 589.9 487.2 593.9 489.1 594.9 490.6 597.8 490.6 598.9 491.6 601.2 488.5 601.2 487 599.9 487 596.5 484.3 590.7 483.5 587.5 481.2 588.6 478.5 590.9 478.8 591.1 478.2 589.3 477.2 589.3 476.7 592.5 476.7 594.3 473.6 593 471.7 592.7 469 591.2 469.2 589.3 471.3 588.7 473.9 585.6 473.3 584.6 471.5 586.4 469.6 588.3 467.9 586.1 461.4 582.7 458 583.7 450.7 583.5 450.2 582.2 450.4 549.1 451.8 548.3 449.4 549.1 440.9 557.7 426.1 556.8 423.5 558.2 423.1 558.6 421.1 556.4 419.1 556.5 417.2 554.5 412.7 554.1 407.6 554.2 406.9 527.8 407.7 502.6 407.8 503 417.5 503.7 427 504.2 430.7 506.8 435.2 507.7 439.6 512 445.6 512.3 448.7 512.9 449.5 512.2 457.8 509.4 462.4 510.6 464.8 510.1 467.4 509.3 474.7 508 477.7 508.2 481.4"></polygon>
                <path d="M873.5,166.5 L873,164.2 L873.8,162.7 L876.7,161.2 L877.5,164.3 L877,166.1 L874.6,167.6 L874.6,168.6 L876.5,167.1 L880.4,162.6 L884.3,160.7 L888.5,159.2 L888.2,156.8 L887.2,153.9 L885.3,151.5 L883.5,150.7 L881.4,150.9 L880.9,151.4 L881.9,152.7 L883.4,151.9 L885.5,153.5 L886.3,156.2 L884.5,158 L882.2,159 L878.6,158.5 L874.7,152.5 L872.4,149.9 L870.6,149.9 L869.5,150.7 L867.6,148.1 L867.9,146.6 L870.3,141.4 L867.4,137 L863.7,138.8 L861.9,141.7 L843.6,146.4 L829.8,148.9 L829.2,159.5 L829.9,164.4 L851.9,159.6 L863.1,156.8 L865.1,158.4 L868.5,162.7 L871.4,167.4 L873.5,166.5 Z M886,167.9 L888.2,167.2 L888.7,165.5 L889.7,165.6 L890.7,167.9 L889.4,168.4 L885.5,168.5 L886,167.9 Z M876.6,168.7 L878.9,166.1 L880.5,166.1 L882.3,167.6 L879.9,168.6 L877.7,169.6 L876.6,168.7 Z" id="MA" fill-opacity="0.5" fill-rule="nonzero"></path>
                <path d="M820.8,258.1 L822.5,254.3 L823,249.5 L816.7,250.6 L810.9,250.9 L807.1,234.1 L804.8,228.6 L803.3,224 L781.1,228.3 L743.5,235.9 L745.5,246.3 L750.3,241.4 L752.8,240.7 L754.2,239.2 L756,236.5 L757.6,237.2 L760.2,237 L762.8,234.9 L764.8,233.4 L766.9,232.8 L768.4,233.9 L771.1,235.3 L773,237.1 L774.3,238.5 L779.1,240.1 L778.5,243 L784.3,245.1 L786.4,242.5 L790.1,245 L788,248.3 L787.3,251.6 L785.5,254.2 L785.5,256.3 L785.8,257.1 L787.8,258.4 L791.2,259.5 L795.5,259.4 L798.6,260.4 L800.7,260.7 L801.7,258.6 L800.2,256.5 L800.2,254.7 L797.8,252.6 L795.7,247.1 L797,241.8 L796.8,239.7 L795.5,238.4 C795.5,238.4 797,236.8 797,236.1 C797,235.5 797.5,234 797.5,234 L799.4,232.7 L801.3,231.1 L801.8,232.1 L800.3,233.7 L799,237.4 L799.3,238.5 L801.1,238.8 L801.6,244.3 L799.5,245.3 L799.8,248.9 L800.3,248.7 L801.4,246.8 L803,248.6 L801.4,249.9 L801.1,253.3 L803.7,256.7 L807.6,257.2 L809.2,256.4 L812.4,260.6 L813.4,261 L820.8,258.1 Z M806.3,258.3 L807.4,260.8 L807.6,262.6 L808.7,264.5 C808.7,264.5 809.6,263.6 809.6,263.3 C809.6,263 808.9,260.2 808.9,260.2 L808.2,257.9 L806.3,258.3 Z" id="MD" fill-opacity="0.5" fill-rule="nonzero"></path>
                <path d="M851.8,85.9 L853.3,86.3 L853.3,83.7 L854.1,78.2 L856.7,73.5 L858.2,69.5 L856.3,67.1 L856.3,61.1 L857.1,60.1 L857.9,57.4 L857.7,55.9 L857.5,51.1 L859.3,46.3 L862.2,37.4 L864.3,33.2 L865.6,33.2 L866.9,33.4 L866.9,34.5 L868.2,36.8 L870.9,37.4 L871.7,36.6 L871.7,35.6 L875.7,32.7 L877.5,30.9 L879,31.1 L885,33.5 L886.9,34.5 L896,64.4 L902,64.4 L902.8,66.3 L903,71.1 L905.9,73.4 L906.7,73.4 L906.9,72.9 L906.4,71.8 L909.2,71.3 L911.1,73.4 L913.4,77.1 L913.4,79 L911.3,83.7 L909.4,84.3 L906,87.4 L901.2,92.9 C901.2,92.9 900.6,92.9 899.9,92.9 C899.3,92.9 898.9,90.8 898.9,90.8 L897.1,91 L896.1,92.5 L893.7,94 L892.7,95.5 L894.3,97 L893.8,97.6 L893.3,100.3 L891.4,100.1 L891.4,98.5 L891.1,97.2 L889.6,97.5 L887.8,94.3 L885.7,95.6 L887,97.1 L887.3,98.2 L886.5,99.5 L886.8,102.6 L887,104.2 L885.4,106.8 L882.5,107.3 L882.2,110.2 L876.9,113.3 L875.6,113.8 L874,112.3 L870.9,115.9 L871.9,119.1 L870.4,120.4 L870.2,124.8 L869.1,131.1 L866.9,130.2 L866.4,127.1 L862.4,126 L862.2,123.5 L850.5,86.07 L851.8,85.9 Z M888.3,101.5 L889.8,100 L891.2,101.1 L891.8,103.5 L890.1,104.4 L888.3,101.5 Z M895,95.6 L896.8,97.5 C896.8,97.5 898.1,97.6 898.1,97.3 C898.1,97 898.3,95.3 898.3,95.3 L899.2,94.5 L898.4,92.7 L896.4,93.4 L895,95.6 Z" id="ME" fill-opacity="0.5" fill-rule="nonzero"></path>
                <path d="M630.5,205 L649.6,203.1 L649.8,204.2 L659.7,202.7 L671.7,201 L671.8,200.4 L672,198.9 L674.1,195.2 L676.1,193.5 L675.9,188.4 L677.5,186.8 L678.6,186.5 L678.8,182.9 L680.3,179.9 L681.4,180.5 L681.6,181.1 L682.4,181.3 L684.3,180.3 L683.9,171.2 L680.7,163 L678.4,153.9 L676,150.7 L673.4,148.9 L671.8,150 L667.9,151.8 L666,156.8 L663.3,160.5 L662.2,161.1 L660.7,160.5 C660.7,160.5 658.1,159 658.3,158.4 C658.5,157.8 658.8,153.4 658.8,153.4 L662.2,152.1 L663,148.7 L663.6,146.1 L666,144.5 L665.7,134.5 L664.1,132.2 L662.8,131.4 L662,129.3 L662.8,128.5 L664.4,128.8 L664.6,127.2 L662,125 L660.7,122.4 L658.1,122.4 L653.6,120.9 L648.1,117.5 L645.4,117.5 L644.8,118.1 L643.8,117.6 L640.7,115.3 L637.8,117.1 L634.9,119.4 L635.2,123 L636.2,123.3 L638.3,123.8 L638.8,124.6 L636.2,125.4 L633.6,125.7 L632.1,127.5 L631.8,129.6 L632.1,131.2 L632.4,136.7 L628.8,138.8 L628.2,138.6 L628.2,134.4 L629.5,132 L630.1,129.6 L629.3,128.8 L627.4,129.6 L626.4,133.8 L623.7,134.9 L621.9,136.8 L621.7,137.8 L622.3,138.6 L621.7,141.2 L619.4,141.7 L619.4,142.8 L620.2,145.2 L619.1,151.3 L617.5,155.3 L618.1,160 L618.6,161.1 L617.8,163.5 L617.5,164.3 L617.2,167 L620.8,173 L623.7,179.5 L625.2,184.3 L624.4,189 L623.4,195 L621,200.2 L620.7,202.9 L617.5,206 L630.5,205 Z M597.2,132.6 L595.9,131.5 L594.1,121.1 L590.4,119.8 L588.7,117.5 L576.1,114.7 L573.3,113.6 L565.2,111.4 L557.4,110.4 L553.5,105.1 L554.2,104.6 L556.9,103.8 L560.5,101.5 L560.5,100.5 L561.1,99.9 L567.1,98.9 L569.5,97 L573.9,94.9 L574.1,93.6 L576,90.7 L577.8,89.9 L579.1,88.1 L581.4,85.8 L585.8,83.4 L590.5,82.9 L591.6,84 L591.3,85 L587.6,86 L586.1,89.1 L583.8,89.9 L583.3,92.3 L580.9,95.5 L580.6,98.1 L581.4,98.6 L582.4,97.5 L586,94.6 L587.3,95.9 L589.6,95.9 L592.8,96.9 L594.3,98 L595.8,101.1 L598.5,103.8 L602.4,103.6 L603.9,102.6 L605.5,103.9 L607.1,104.4 L608.4,103.6 L609.5,103.6 L611.1,102.6 L615.1,99 L618.5,97.9 L625.1,97.6 L629.6,95.7 L632.2,94.4 L633.7,94.6 L633.7,100.3 L634.2,100.6 L637.1,101.4 L639,100.9 L645.1,99.3 L646.2,98.2 L647.7,98.7 L647.7,105.7 L650.9,108.8 L652.2,109.4 L653.5,110.4 L652.2,110.7 L651.4,110.4 L647.7,109.9 L645.6,110.5 L643.3,110.3 L640.1,111.8 L638.3,111.8 L632.5,110.5 L627.3,110.7 L625.4,113.3 L618.4,113.9 L616,114.7 L614.9,117.8 L613.6,118.9 L613.1,118.7 L611.6,117.1 L607.1,119.5 L606.5,119.5 L605.4,117.9 L604.6,118.1 L602.7,122.5 L601.7,126.5 L598.5,133.4 L597.2,132.6 Z M567.6,76.1 L569.4,74 L571.6,73.2 L577,69.3 L579.3,68.7 L579.8,69.2 L574.7,74.3 L571.4,76.2 L569.3,77.1 L567.6,76.1 Z M653.8,108.2 L654.4,110.7 L657.6,110.9 L658.9,109.7 C658.9,109.7 658.8,108.2 658.5,108.1 C658.2,107.9 656.9,106.2 656.9,106.2 L654.7,106.4 L653.1,106.6 L652.8,107.7 L653.8,108.2 Z" id="MI" fill-opacity="0.5" fill-rule="nonzero"></path>
                <polygon id="MN" fill-opacity="0.5" points="450.6 60.79 450 64.7 450 74.97 451.6 80 453.5 83.32 454 93.25 455.8 106.7 457.6 114 458 120.4 458 125.7 456.4 127.5 454.6 128.8 454.6 130.3 455.5 132 459.6 135.5 460.3 138.7 460.3 174.6 520.6 174 541.8 173.3 541.3 167.3 539.5 165.2 532.3 160.6 528.7 155.3 525.3 154.4 523.3 151.6 520.1 151.6 516.6 147.8 516.1 140.8 516.2 136.9 517.7 133.9 517 131.2 514.2 128.1 516.4 122 521.8 118 523 116.6 522.8 108.6 523 105.6 525.6 102.6 529.4 99.7 530.7 99.5 535.2 94.5 537 93.7 539.3 89.8 541.7 86.2 544.8 83.6 549.6 81.6 558.8 77.5 562.7 75.7 563.3 73.4 558.9 73.8 558.2 74.9 557.6 74.9 555.8 71.8 546.9 72.1 545.9 72.9 544.9 72.9 544.4 71.6 543.6 69.8 541 70.3 537.8 73.5 536.2 74.3 533.1 74.3 530.5 73.3 530.5 71.2 529.2 71 528.7 71.5 526.1 70.2 525.6 67.3 524.1 67.8 523.6 68.8 521.2 68.3 515.9 65.9 512 63.3 509.1 63.3 507.8 62.3 505.5 62.9 504.4 64 504.1 65.3 499.3 65.3 499.3 63.2 493 62.9 492.7 61.4 487.9 61.4 486.3 59.8 484.8 53.7 484 48.2 482.1 47.4 479.8 46.9 479.2 47.1 478.9 55.3 448.8 55.27"></polygon>
                <polygon id="MO" fill-opacity="0.5" points="579.1 332.7 579.6 326.8 583.8 323.4 585.7 322.4 585.7 319.5 586.4 317.9 585.3 316.3 582.9 316.6 580.8 314.1 579.1 309.6 580 307 578 303.8 576.2 299.2 571.6 298.5 564.8 292.9 562.6 288.7 563.4 285.4 565.6 279.4 566.2 276.4 564.3 275.4 557.4 274.8 556.3 272.9 556.3 268.8 551 265.3 543.8 257.5 541.5 250.2 541 246 541.7 243.6 539.1 240.5 537.9 238.1 530.2 238.9 520.2 239.5 471.4 240.7 472.7 243.3 472.6 245.5 474.9 249.1 477.9 253 481 256 483.6 256.2 485 257.3 485 260.2 483.2 261.8 482.7 264.1 484.8 267.3 487.2 270.3 489.8 272.4 491.1 284 490.3 324 490.8 329.7 514.5 329.5 537.8 328.8 570.3 327.5 572.5 331.2 571.7 334.3 568.6 336.8 568.1 338.6 573.3 339.1 577.4 338"></polygon>
                <polygon id="MS" fill-opacity="0.5" points="590.3 466.5 592.9 462.3 594.7 463.1 601.5 461.2 603.6 461.5 605.1 462.3 610.3 462.3 610.7 460.7 609 445.9 606.2 426.9 607.2 381.8 607 365.1 607.2 358.8 602.4 359.1 582.8 360.7 569.8 361.1 569.6 364.3 566.8 365.6 564.2 370.7 564.7 372.3 564.8 374.7 561.9 375.8 558.4 380.9 559.2 383.2 556.2 385.7 555.2 391.4 554.6 393.3 556.2 395.8 554.7 397.2 556.2 400 556.5 404.2 555.3 406.7 555.1 407.6 555.5 412.6 557.5 417.1 557.4 418.8 559.7 420.8 559 423.9 558.1 424.2 558.7 426.1 550.1 441.1 549.3 449.3 549.8 450.8 574 450.1 582.2 449.4 584.1 449.1 584.7 450.5 583.7 457.6 587 460.9 589.2 467.3"></polygon>
                <polygon id="MT" fill-opacity="0.5" points="347.1 64.77 341.8 121.9 340.5 137.1 281.4 130.5 232.4 123.4 231 134.6 229.1 132.9 228.7 130.4 227.4 128.5 224.1 130 223.4 132.5 221.1 132.8 217.3 131.2 213.2 131.3 210.8 132 207.6 130.5 204.6 130.7 202.5 132.6 201.6 132 200.9 128.6 201.6 125.4 198.9 122.2 195.6 119.7 193.1 107.1 193 101.8 191.4 101 190.8 102 186.3 105.2 185.1 105.1 182.8 102.3 182.6 99.5 189.6 82.35 189 79.68 185.5 78.56 185.1 77.65 182.4 74.15 177.8 63.74 174.6 62.16 172.8 57.9 174.1 53.27 170.9 45.7 175.3 24.41 208 31.3 226.4 34.7 258.7 40 288 44 317.2 47.5 348 50.57"></polygon>
                <path d="M772.7,351.7 L760,344 L756.9,343.2 L740.3,345.3 L738.7,342.3 L735.9,340.1 L719.2,340.6 L711.8,341.5 L702.6,346 L695.8,348.7 L689.3,349.9 L675.9,351.3 L676,347.2 L677.7,345.9 L680.4,345.2 L681.1,341.4 L685,338.9 L688.9,337.4 L693.4,333.7 L697.8,331.4 L698.5,328.2 L702.6,324.4 L703.3,325.4 L705.8,325.6 L708.2,322 L709.9,321.6 L712.5,321.9 L714.3,317.9 L716.8,315.5 L717.3,313.7 L717.4,310.2 L721.8,310.3 L760.3,304.7 L817.8,292.4 L819.8,297.2 L823.4,303.7 L825.8,306.1 L826.4,308.4 L824,308.6 L824.8,309.2 L824.5,313.4 L821.9,314.7 L821.3,316.8 L820,319.7 L816.3,321.3 L813.9,321 L812.4,320.8 L810.8,319.5 L811.1,320.8 L811.1,321.8 L813,321.8 L813.8,323.1 L811.9,329.4 L816.1,329.4 L816.7,331 L819,328.7 L820.3,328.2 L818.4,331.8 L815.3,336.6 L814,336.6 L812.9,336.1 L810.2,336.7 L805,339.1 L798.5,344.4 L795.1,349.1 L793.2,355.6 L792.7,358 L788,358.5 L782.9,360 L772.7,351.7 Z M822,325.5 L824.6,323 L827.8,320.4 L829.3,319.8 L829.5,317.8 L828.9,311.7 L827.4,309.4 L826.8,307.5 L827.5,307.3 L830.2,312.8 L830.6,317.2 L830.4,320.6 L827,322.1 L824.2,324.5 L823.1,325.7 L822,325.5 Z" id="NC" fill-opacity="0.5" fill-rule="nonzero"></path>
                <polygon id="ND" fill-opacity="0.5" points="457 120.4 456.6 114.2 454.8 106.9 453 93.29 452.5 83.59 450.6 80.41 449 75.09 449 64.68 449.6 60.83 447.8 55.29 419.2 54.7 400.6 54.1 374.1 52.8 348.9 50.64 348 65.06 343.3 116 400.1 119.9 457 121.6"></polygon>
                <polygon id="NE" fill-opacity="0.5" points="456.3 198.3 455.3 196 454.8 194.4 451.9 192.8 447.1 191.3 444.9 190.1 442.3 190.2 438.6 190.6 434.4 191.8 428.4 187.7 426.2 185.7 415.5 186.3 374 183.9 338.4 181.7 334.1 225.4 367.2 228.7 365.8 249.8 387.5 250.8 428.1 252 471.9 252.6 476.4 252.6 474.2 249.6 471.6 245.7 471.7 243.4 470.3 240.7 468.4 235.5 468 228.8 466.6 224.7 466.1 219.7 463.8 216 462.8 211.3 460 203.4 459 198.1"></polygon>
                <polygon id="NH" fill-opacity="0.5" points="867.7 135.3 868.8 132.1 866.1 130.9 865.6 127.8 861.5 126.7 861.2 123.7 849.5 86.22 848.8 86.3 848.2 87.9 847.6 87.4 846.6 86.4 845.1 88.3 844.9 90.59 845.4 99 847.3 101.8 847.3 106.1 843.4 110.9 841 111.8 841 112.5 842.1 114.4 842.1 123 841.3 132.2 841.1 136.9 842.1 138.3 841.9 143 841.4 144.5 842.4 145.6 847.5 144.4 861.3 140.9 863 138 867 136.1"></polygon>
                <polygon id="NJ" fill-opacity="0.5" points="809.7 222.3 809.8 220.8 812.5 219.5 814.2 216.7 815.9 214.3 819.2 211.1 819.2 209.9 813.1 205.8 812.1 203.1 809.4 202.8 809.3 201.9 808.6 199.7 810.8 198.6 811 195.7 809.7 194.4 809.9 193.2 811.8 190.1 811.8 187 814.3 183.9 819.9 186.4 826.3 188.3 828.8 189.5 828.9 191.3 828.4 194 828.8 198.5 826.7 200.4 825.6 201.4 826.1 201.9 828.8 201.6 829.9 200.8 831.5 204.2 831.7 213.6 832.3 214.7 831.2 220.2 828.1 226.7 825.4 230.7 824.6 235.5 822.5 237.9 821.7 237.9 821.4 235.2 822.2 234.2 822 232.7 818 232.1 813.2 229.8 810 226.9 809 224.9"></polygon>
                <polygon id="NM" fill-opacity="0.5" points="256.2 423.4 239.5 420.8 238.3 430.4 222.5 428.4 228.5 388.7 235.5 335.5 239.9 304.6 273.9 308.5 311.3 312.9 343.3 315.7 343 326.5 341.6 326.4 334.2 424.1 305.8 422.3 267.7 418.6 268.4 424.9"></polygon>
                <polygon id="NV" fill-opacity="0.5" points="109.1 167.6 147.8 176.1 173.8 181.3 163.2 234.4 157.8 264.2 154.5 279.7 152.4 290.8 149.8 307.2 148.1 310.3 146.5 310.2 145.3 307.6 142.5 307.1 141.2 306 139.4 306.1 138.5 306.9 136.7 308.2 136.4 315.5 136.1 317 135.6 329.4 134.5 331.2 117.8 305.7 75.7 243.6 63.27 224.6 71.82 192 79.83 160.7"></polygon>
                <polygon id="NY" fill-opacity="0.5" points="829.4 194 829.9 191.3 829.7 188.9 826.7 187.4 820.2 185.4 814.2 182.8 813.6 182.4 810.9 182.1 808.9 180.6 806.8 174.7 803.5 174.2 801.1 171.8 762.7 179.9 731.1 185.9 730.6 179.4 732.2 178.2 733.5 177.1 734.5 175.5 736.3 174.4 738.2 172.6 738.7 171 740.8 168.3 741.9 167.3 741.7 166.3 740.4 163.2 738.6 163 736.7 156.9 739.6 155.1 744 153.6 748 152.3 751.2 151.8 757.5 151.6 759.4 152.9 761 153.1 763.1 151.8 765.7 150.7 770.9 150.2 773 148.4 774.8 145.2 776.4 143.3 778.5 143.3 780.4 142.2 780.6 139.9 779.1 137.8 778.8 136.3 779.9 134.2 779.9 132.7 778.1 132.7 776.3 131.9 775.5 130.8 775.3 128.2 781.1 122.7 781.7 121.9 783.2 119 786.1 114.5 788.8 110.8 790.9 108.4 793.3 106.6 796.4 105.4 801.9 104.1 805.1 104.3 809.6 102.8 817 100.6 817.7 105.5 820.1 112 820.9 117 819.9 121.2 822.5 125.7 823.3 127.7 822.4 130.9 826.1 132.6 828.8 142.8 828.8 148.6 828.2 159.5 829 164.9 829.7 168.5 831.2 175.8 831.2 183.9 830.1 186.2 832.2 188.9 832.7 189.8 830.8 191.6 831.1 192.9 832.4 192.6 833.9 191.3 836.2 188.7 837.3 188.1 838.9 188.7 841.2 188.9 849.1 185 852 182.3 853.3 180.8 857.5 182.4 854.1 186 850.2 188.9 843.1 194.2 840.5 195.2 834.7 197.1 830.7 198.2 829.7 197.8"></polygon>
                <polygon id="OH" fill-opacity="0.5" points="649.8 205.2 651.5 220.7 656.3 261.8 660.2 261.6 662.5 260.8 666.1 262.6 667.8 266.8 673.2 266.9 675 268.9 676.7 268.9 679.1 267.5 682.2 268 683.7 269.3 685.5 267.3 687.8 265.9 690.2 265.5 690.8 268.2 692.4 269.2 695 271.2 695.8 271.4 697.8 271.3 699 270.7 699 268.6 700.7 267.1 700.8 262.3 701.9 258.1 703.8 256.8 704.8 257.5 705.8 258.6 706.5 258.8 706.9 258.4 706 255.7 706 253.5 707.1 252.1 709.6 248.5 710.9 247 713.1 247.5 715.2 246 718.2 242.7 720.4 239 720.6 233.6 721.1 228.6 721.1 224 719.9 220.8 721.1 219 722.4 217.8 721.8 215 717.5 189.4 711.3 193.1 707.4 195.4 704 199.1 700 203 696.8 203.8 693.9 204.3 688.4 206.9 686.3 207.1 682.9 204 677.7 204.6 675.1 203.1 672.9 201.8"></polygon>
                <polygon id="OK" fill-opacity="0.5" points="397.9 328.9 396.1 353.2 395.2 371.2 395.4 372.8 399.4 376.4 401.1 377.3 402 377.3 402.9 375.2 404.4 377.1 406 377.2 406.3 377 406.5 375.9 409.3 377.3 408.9 380.8 412.7 381.3 415.2 382.3 419.4 382.9 421.7 384.5 424.2 382.8 427.7 383.5 429.9 386.6 431.1 386.7 431.1 389 433.2 389.7 435.7 387.6 437.5 388.2 440.2 388.3 440.9 390.6 445.3 392.4 447 392.1 448.9 387.9 450.2 387.9 451.3 390 455.5 390.8 458.9 392.1 461.9 392.9 463.5 392.2 464.2 389.5 468.7 389.5 470.6 390.4 473.3 388.5 474.7 388.5 475.3 389.9 478.9 389.9 480.9 388.1 483.2 388.7 484.9 390.9 487.9 392.6 491.3 393.5 493.2 394.7 492.9 357.1 491.5 346.2 491.4 337.6 489.9 331 489.3 324.2 489.4 319.9 476.8 320.2 430.5 319.7 385.8 317.6 344.3 315.8 343.9 326.5"></polygon>
                <polygon id="OR" fill-opacity="0.5" points="53.44 152.9 81.68 160.1 109.2 166.6 126.2 170.3 135 135.2 136.2 130.8 138.6 125.3 137.9 124 135.4 124.1 134.1 122.3 134.7 120.8 135.1 117.5 139.8 111.8 141.7 110.9 142.6 110.1 143.3 107.4 144.1 106.3 148 100.6 151.7 96.6 151.9 93.34 148.5 90.85 147.3 86.3 134.2 82.47 118.9 79 104.1 79.37 103 78.06 97.9 79.9 93.4 79.42 91 77.84 89.7 78.38 85.02 78.09 83.06 76.66 78.22 74.89 77.12 74.82 72.67 73.55 70.91 75.07 64.65 74.83 59.34 70.98 59.55 61.7 57.5 58.2 53.4 57.6 52.7 55.1 50.3 54.6 44.5 56.7 42.2 63.2 39 73.2 35.8 79.7 30.8 93.8 24.3 107.4 16.2 120 14.3 122.9 13.5 131.5 12.2 137.5 14.91 141"></polygon>
                <polygon id="PA" fill-opacity="0.5" points="722.6 186.2 723.9 185.7 729.6 180.2 730.3 187.1 763.8 180.6 800.7 172.8 803 175.1 806.1 175.5 808.1 181.1 810.5 183 813.3 183.4 813.4 183.5 810.8 186.7 810.8 189.8 808.9 192.9 808.7 194.8 810 196.1 809.8 198 807.4 199.1 808.4 202.5 808.6 203.6 811.4 203.9 812.3 206.4 818.2 210.3 818.2 210.7 815.1 213.7 813.6 215.9 811.9 218.7 809.2 219.9 807.8 220.2 805.7 221.5 804.1 222.9 781.7 227.2 743 235 731.7 236.4 727.8 237.1 722.7 214.7 718.4 188.8"></polygon>
                <polygon id="RI" fill-opacity="0.5" points="859.6 169.7 858.8 165.3 857.2 159.3 862.9 157.8 864.4 159.1 867.8 163.4 870.6 167.8 867.8 169.2 866.5 169 865.4 170.8 863 172.7 860.2 173.8"></polygon>
                <polygon id="SC" fill-opacity="0.5" points="745 407.6 742.9 406.6 741 401 738.5 398.7 736 398.2 734.5 393.6 731.5 387.1 727.3 385.3 725.4 383.5 724.2 380.9 721.8 378.9 719.5 377.6 717.3 374.7 714.1 372.3 709.7 370.6 709.3 369.2 707 366.4 706.5 364.9 702.7 359.5 699.3 359.6 695.4 357.1 694.2 355.9 694 354.5 694.6 352.9 697.3 351.6 696.5 349.6 702.9 346.9 712.1 342.4 719.2 341.5 735.6 341 737.9 342.9 739.7 346.4 744.3 345.6 756.9 344.1 759.6 344.9 772.1 352.3 782.2 360.6 776.9 366 774.3 372.1 773.8 378.4 772.2 379.2 771.1 381.9 768.7 382.5 766.6 386.1 763.9 388.8 761.6 392.2 760 393 756.4 396.4 753.5 396.6 754.5 399.8 749.5 405.1 747.2 406.7"></polygon>
                <polygon id="SD" fill-opacity="0.5" points="457 175.1 456.1 178.3 456.5 181.3 459.1 183.3 457.9 188.7 456.1 192.8 457.6 196.1 458.3 197.2 457 197.3 456.3 195.7 455.7 193.7 452.4 191.9 447.6 190.4 445.1 189.1 442.2 189.2 438.3 189.6 434.5 190.8 429.2 187 426.5 184.6 415.6 185.4 374.1 183 338.5 180.8 340 156 342.8 122 343.2 117 400.1 120.9 457 122.6 457 125.3 455.7 126.8 453.7 128.3 453.6 130.5 454.7 132.7 458.8 136.1 459.3 138.8 459.3 174.7"></polygon>
                <polygon id="TN" fill-opacity="0.5" points="656.8 353.6 643.7 354.8 620.4 357 582.8 359.7 571 360.1 571.9 359.5 572.8 355 571.6 351.4 575.5 349.1 575.9 346.6 577.1 342.3 580.1 332.8 580.6 327.2 580.9 327 593.2 326.8 606.8 326 606.9 322.1 610.4 322 640.8 318.7 694.8 313.5 705.1 312 712.7 311.8 715.1 309.9 716.4 310.2 716.3 313.5 715.9 315.1 713.5 317.3 711.9 320.9 709.9 320.5 707.5 321.4 705.3 324.7 703.9 324.5 703.1 323.3 702 323.7 697.7 327.7 696.9 330.8 692.7 333 688.4 336.6 684.6 338.1 680.2 340.9 679.6 344.5 677.1 345 675.1 346.7 674.9 351.5"></polygon>
                <path d="M268.8,419.6 L305.8,423.2 L335.1,425.1 L342.5,327.4 L396.9,329.8 L395.2,353.1 L394.2,371.1 L394.4,373.1 L398.8,377.2 L400.8,378.3 L402.6,378.3 L403.1,377.1 L403.8,378 L406.2,378.2 L407.3,377.6 L407.3,377.4 L408.3,377.9 L407.9,381.6 L412.4,382.3 L414.8,383.2 L419,383.9 L421.6,385.7 L424.4,383.8 L427.1,384.4 L429.3,387.5 L430.1,387.6 L430.1,389.7 L433.4,390.8 L435.9,388.7 L437.4,389.2 L439.5,389.3 L440.1,391.4 L445.3,393.4 L447.6,392.9 L449.5,388.9 L449.6,388.9 L450.7,390.8 L455.3,391.7 L458.7,393 L461.9,394 L464.3,392.8 L465,390.5 L468.6,390.5 L470.7,391.5 L473.7,389.5 L474.1,389.5 L474.6,390.9 L479.3,390.9 L481.2,389.1 L482.5,389.5 L484.2,391.6 L487.5,393.5 L490.9,394.5 L493.4,395.9 L496.1,397.9 L499.2,396.7 L501.3,397.5 L502,417.5 L502.7,427 L503.3,431.1 L505.9,435.5 L506.8,440 L511,445.9 L511.3,449 L511.9,449.8 L511.2,457.5 L508.3,462.3 L509.6,464.9 L509.1,467.3 L508.3,474.5 L507,477.5 L507.3,481.7 L501.7,483.3 L491.8,487.8 L490.8,489.7 L488.2,491.6 L486.1,493.1 L484.8,493.9 L479.1,499.2 L476.4,501.3 L471.1,504.5 L465.4,506.9 L459.1,510.3 L457.3,511.8 L451.5,515.4 L448.1,516 L444.2,521.5 L440.2,521.8 L439.2,523.7 L441.5,525.6 L440,531.1 L438.7,535.6 L437.6,539.5 L436.8,544 L437.6,546.4 L439.4,553.4 L440.4,559.5 L442.2,562.2 L441.2,563.7 L438.1,565.6 L432.4,561.7 L426.9,560.6 L425.6,561.1 L422.4,560.5 L418.2,557.4 L413,556.3 L405.4,552.9 L403.3,549 L402,542.5 L398.8,540.6 L398.2,538.3 L398.8,537.7 L399.1,534.3 L397.8,533.7 L397.2,532.7 L398.5,528.3 L396.9,526 L393.7,524.7 L390.3,520.3 L386.7,513.7 L382.5,511.1 L382.7,509.2 L377.4,496.9 L376.6,492.7 L374.8,490.8 L374.6,489.3 L368.6,484 L366,480.9 L366,479.8 L363.4,477.7 L356.6,476.6 L349.2,476 L346.1,473.7 L341.6,475.5 L338,477 L335.7,480.2 L334.7,483.9 L330.3,490 L327.9,492.4 L325.3,491.4 L323.5,490.3 L321.6,489.7 L317.7,487.4 L317.7,486.8 L315.9,484.9 L310.7,482.8 L303.3,475 L301,470.3 L301,462.2 L297.8,455.7 L297.3,453 L295.7,452 L294.6,449.9 L289.6,447.8 L288.3,446.2 L281.2,438.3 L279.9,435.1 L275.2,432.8 L273.7,428.4 L271.1,425.5 L269.4,425 L268.8,419.6 Z M443.2,561.3 L442.6,554.2 L439.9,547 L439.3,540 L440.8,531.8 L444.1,524.9 L447.6,519.5 L450.8,515.9 L451.4,516.1 L446.6,522.7 L442.2,529.2 L440.2,535.8 L439.9,541 L440.8,547.1 L443.4,554.3 L443.9,559.5 L444.1,561 L443.2,561.3 Z" id="TX" fill-opacity="0.5" fill-rule="nonzero"></path>
                <polygon id="UT" fill-opacity="0.5" points="214.4 299.9 239 303.5 240.9 289.8 247.9 239.3 250.2 217.3 218 213.8 220.2 200.7 222 190.1 187.3 184 174.8 181.5 164.2 234.4 158.8 264.4 155.5 279.8 153.8 289"></polygon>
                <path d="M820.7,259.2 L820.5,262 L817.6,265.8 L817.2,270.4 L817.7,273.8 L815.9,278.8 L813.7,280.7 L812.2,276.1 L812.6,270.7 L814.2,266.5 L814.9,263.2 L814.8,261.5 L820.7,259.2 Z M760.4,303.8 L721.8,309.4 L717,309.3 L714.8,309 L712.3,310.9 L705,311 L694.7,312.6 L688,313.2 L692.1,310.6 L696.2,308.3 L696.2,306.2 L701.9,298.9 L706,295.2 L708.2,292.7 L711.8,297 L715.6,297.9 L718.3,296.9 L720.3,295.4 L722.7,296.6 L727.3,295.3 L729,290.9 L731.4,291.6 L734.6,289.3 L736.2,289.7 L739,286.5 L739.2,283.8 L738.4,282.6 L743.2,272.1 L745,266.9 L745.5,262.2 L746.2,262 L747.3,263.7 L748.8,264.9 L752.7,264.7 L754.4,256.6 L757.4,256 L758.2,253.4 L761,251.2 L762.1,249.1 L763.9,244.8 L764,240.2 L767.6,241.6 L774.2,244.7 L774.5,239.5 L777.9,240.7 L777.3,243.6 L785.9,246.7 L787.3,248.5 L786.5,251.8 L785.2,253.1 L784.7,254.8 L785.2,257.2 L787.2,258.5 L791.1,259.9 L794,260.9 L798.9,261.8 L801.1,263.9 L804.3,264.3 L805.2,265.5 L804.8,270.2 L806.2,271.3 L805.7,273.2 L806.9,274 L806.7,275.4 L804,275.3 L804.1,276.9 L806.4,278.4 L806.5,279.8 L808.3,281.6 L808.8,284.1 L806.2,285.5 L807.8,287 L813.6,285.3 L817.3,291.5 L760.4,303.8 Z" id="VA" fill-opacity="0.5" fill-rule="nonzero"></path>
                <polygon id="VT" fill-opacity="0.5" points="818.7 105.3 821.1 111.8 821.9 117.1 820.9 121 823.4 125.4 824.3 127.7 823.6 130.3 826.9 131.8 829.8 142.6 829.8 147.9 841.3 145.8 840.3 144.7 840.9 142.8 841.1 138.5 840.1 137.1 840.3 132.4 841.1 123.1 841.1 114.6 840 112.8 840 111.2 842.8 110.1 846.3 105.7 846.3 102.1 844.4 99.4 844.1 93.61 818 100.4"></polygon>
                <path d="M60.5,61.7 L58.2,57.4 L54.1,56.7 L53.7,54.3 L51.2,53.7 L48.3,53.2 L46.5,54.2 L44.2,51.3 L44.5,48.4 L47.2,48.1 L48.8,44.1 L46.2,43 L46.4,39.3 L50.8,38.7 L48.1,36 L46.6,28.9 L47.2,26 L47.2,18.1 L45.4,14.9 L47.7,5.5 L49.8,6 L52.2,8.9 L54.9,11.5 L58.1,13.4 L62.6,15.5 L65.7,16.1 L68.6,17.6 L72,18.6 L74.3,18.4 L74.3,16 L75.6,14.9 L77.7,13.6 L78,14.7 L78.3,16.5 L76,17 L75.7,19.1 L77.5,20.6 L78.6,23 L79.2,24.9 L80.7,24.7 L80.9,23.4 L79.9,22.1 L79.4,18.9 L80.2,17.1 L79.6,15.6 L79.6,13 L81.4,9.4 L80.3,6.8 L77.9,2 L78.2,1.2 L79.6,0.4 L84,1.9 L93.7,4.6 L102.3,6.5 L122.3,12.2 L145.3,17.9 L160.3,21.39 L155.5,38.95 L151,59.78 L147.6,76.03 L147.2,85.21 L134.3,81.49 L119,78.02 L104.5,78.34 L103.4,76.81 L97.7,78.9 L93.8,78.48 L91.2,76.69 L89.5,77.34 L85.35,77.09 L83.63,75.77 L78.47,73.95 L77.29,73.79 L72.49,72.4 L70.57,74.05 L64.92,73.8 L60.31,70.45 L60.5,61.7 Z M70.1,6.3 L72.1,6.1 L72.6,7.5 L74.1,5.9 L76.4,5.9 L77.2,7.4 L75.7,9.1 L76.3,9.9 L75.6,11.9 L74.2,12.3 C74.2,12.3 73.3,12.4 73.3,12.1 C73.3,11.8 74.8,9.5 74.8,9.5 L73.1,8.9 L72.8,10.4 L72.1,11 L70.6,8.7 L70.1,6.3 Z" id="WA" fill-opacity="0.5" fill-rule="nonzero"></path>
                <polygon id="WI" fill-opacity="0.5" points="527.4 103.9 530.3 104.4 533.2 103.8 540.6 100.6 543.5 98.7 545.6 97.9 547.5 99.4 546.4 100.5 544.5 103.6 543.9 105.5 544.9 106.1 546.7 105.1 547.8 104.9 550.5 105.7 551.1 106.8 552.2 107 552.8 105.9 556.8 111.2 565 112.4 573.2 114.6 575.8 115.7 588.1 118.3 589.7 120.6 593.3 121.8 595 132 596.6 133.4 598.1 134.3 597 136.6 595.2 138.2 593.1 142.9 591.8 145.3 592 147.1 593.5 147.4 594.6 145.5 596.1 144.7 596.9 142.4 598.8 140.6 601.5 136.6 605.7 130.3 606.5 129.8 606.8 130.8 606.6 133.1 603.7 139.9 601 145.6 600.5 148.8 599.9 151.4 600.7 152.7 600.5 155.4 598.6 157.8 598.1 159.6 598.7 163.2 599.3 166.6 597.8 169.2 597 172.1 596 175.2 597.1 177.6 597.7 183.7 599.3 188.2 599.1 191.2 583.2 193 565.7 194 553 194 552.3 192.5 549.4 192.1 546.8 190.8 544.5 187.1 544.2 183.5 546.2 180.6 545.7 179.2 543.6 177 542.8 173.7 542.2 166.9 540.1 164.4 533.1 159.9 529.3 154.5 525.9 153.5 523.7 150.7 520.5 150.7 517.6 147.4 517.1 140.9 517.2 137.1 518.7 134 517.9 130.8 515.4 128 517.2 122.6 522.4 118.8 524 116.9 523.8 108.8 524 106 526.4 103.2"></polygon>
                <polygon id="WV" fill-opacity="0.5" points="744.9 248.3 750.7 242.3 753.3 241.5 754.9 240 756.4 237.8 757.5 238.1 760.6 237.9 765.2 234.3 766.7 233.8 768 234.8 770.6 236 773.6 239 773.2 243.3 767.8 240.7 763 238.9 762.9 244.8 760.3 250.5 757.4 252.9 756.6 255.2 753.6 255.7 751.9 263.8 749.1 264 748 263 746.8 261 744.6 261.5 744.1 266.6 742.3 271.7 737.3 282.7 738.2 284.1 738.1 286.1 735.9 288.6 734.3 288.2 731.2 290.5 728.4 289.7 726.6 294.6 722.8 295.6 720.3 294.3 717.8 296.2 715.5 296.9 712.3 296.1 708.5 291.6 705 289.4 702.5 286.9 699.6 283.2 699.1 280.9 696.3 279.2 695.7 277.9 695.5 272.3 695.8 272.4 698.2 272.2 700 271.2 700 269 701.7 267.5 701.8 262.3 702.7 258.7 703.8 258 704.2 258.3 705.2 259.4 706.9 259.9 708 258.6 707 255.5 707 253.9 710.1 249.3 711.3 248 713.3 248.5 715.9 246.7 719 243.3 721.4 239.2 721.6 233.6 722.1 228.8 722.1 223.9 721 220.9 721.9 219.6 722.7 218.9 727 238.2 731.3 237.4 742.5 236.1"></polygon>
                <polygon id="WY" fill-opacity="0.5" points="339 155.9 337.5 181.3 333.1 225.3 330.4 225 247.1 215.9 219.2 212.9 221.2 200.9 228.1 159.9 231.9 135.7 233.2 124.5 281.4 131.5 340.5 138"></polygon>
            </g>
        </g>
    </g>
</svg>