<?xml version="1.0" encoding="UTF-8"?>
<svg width="337px" height="170px" viewBox="0 0 337 170" version="1.1" xmlns="http://www.w3.org/2000/svg" xmlns:xlink="http://www.w3.org/1999/xlink">
    <!-- Generator: Sketch 47.1 (45422) - http://www.bohemiancoding.com/sketch -->
    <title>Group 2</title>
    <desc>Created with Sketch.</desc>
    <defs>
        <path d="M0,153.054 L0,0.252 C1.812,0.984 10.11,4.479 12.48,8.036 C15.145,12.036 11.148,10.703 20.474,12.703 C29.799,14.703 32.464,14.703 34.463,20.036 C36.461,25.369 38.46,24.703 44.455,26.036 C50.451,27.369 40.459,22.702 50.451,27.369 C60.443,32.036 59.777,28.035 63.108,33.369 C66.438,38.703 73.1,32.037 79.761,38.703 C86.423,45.37 84.426,43.37 89.088,48.704 C93.751,54.037 93.085,48.036 102.411,53.37 C111.737,58.704 113.735,58.704 118.399,64.704 C123.063,70.704 125.726,77.78 134.387,76.242 C143.047,74.704 149.042,75.036 149.708,79.203 C150.375,83.37 149.708,87.129 149.708,87.129 L150.003,93.572 L171.266,159.231 L0,153.054 Z" id="path-1"></path>
        <path d="M158.242,169.999954 C114.948245,168.008978 0.952,166.597963 0.952,161.831 C0.952,156.735 6.186,108.833 10.64,99.856 C15.094,90.878 12.62,98.166 13.858,95.172 C15.098,92.178 17.568,92.166 18.559,89.961 C19.548,87.756 33.405,88.166 38.354,84.007 C43.303,79.848 45.282,78.833 47.757,74.257 C50.231,69.681 54.686,72.166 63.594,69.038 C72.502,65.911 70.027,60.166 72.502,57.5 C74.976,54.834 87.349,61.5 88.339,60.184 C89.329,58.868 89.328,54.832 90.317,51.816 C91.308,48.8 96.752,43.5 105.165,40.166 C113.578,36.832 108.134,40.166 109.619,40.166 C111.104,40.166 111.599,33.5 115.063,32.833 C118.527,32.166 120.507,29.5 120.507,29.5 C120.507,29.5 124.961,22.166 126.94,20.166 C128.921,18.166 136.839,9.5 136.839,9.5 L141.788,9.5 C141.788,9.5 145.747,6.166 149.211,2.166 C151.56868,-0.557630179 155.786854,0.427732342 158.242,1.33363099 L158.242,169.999954 L158.242,169.999954 Z" id="path-3"></path>
    </defs>
    <g id="Page-1" stroke="none" stroke-width="1" fill="none" fill-rule="evenodd">
        <g id="m_06-2">
            <g id="Group">
                <g id="Group-2">
                    <path d="M33.289,23.924 C33.289,23.924 44.281,11.424 51.775,14.424 C59.269,17.424 51.275,20.457 63.766,17.69 C76.256,14.924 81.752,6.424 87.248,11.924 C92.744,17.424 97.74,23.424 100.238,23.924 C102.736,24.424 109.231,29.924 117.725,31.924 C126.218,33.924 147.702,28.424 153.197,31.924 C158.693,35.424 175.181,33.326 182.175,32.375 C189.17,31.424 195.165,35.924 200.661,37.424 C206.157,38.924 209.654,38.424 217.148,37.424 C224.643,36.424 230.139,32.424 237.633,29.924 C245.127,27.424 242.629,23.057 251.622,24.24 C260.615,25.424 265.611,29.424 269.108,29.924 C272.606,30.424 277.603,32.424 284.597,31.924 C291.592,31.424 306.58,25.057 308.079,24.24 C309.578,23.424 301.584,93.638 301.584,93.638 L39.284,73.932" id="Fill-3" fill="#88A8AE"></path>
                    <path d="M100.373,35.453 C100.373,35.453 100.072,31.551 106.585,38.387 C113.099,45.223 115.912,37 119.409,42 C122.906,47 122.804,50.685 126.318,54.5 C129.833,58.315 130.911,57.026 130.4,50.333 C129.89,43.641 132.213,37.167 134.231,40.167 C136.25,43.167 147.661,46.246 149.772,51.873 C151.884,57.5 150.032,56.961 158.202,60.231 C166.373,63.5 179.727,66.399 181.26,73.25 C182.793,80.102 175.454,76.516 175.909,79.008 C176.365,81.5 167.316,83.965 167.316,83.965 L134.908,71.389 L104.544,57.596 C104.544,57.596 112.932,55.793 102.491,41.294" id="Fill-4" fill="#95B8BF"></path>
                    <path d="M242.788,29.419 C242.788,29.419 250.328,24.618 250.818,29.419 C251.308,34.22 253.713,32.927 255.409,34.72 C257.106,36.513 256.962,40.72 256.633,42.72 C256.304,44.72 238.285,55.301 238.285,55.301 C238.285,55.301 230.987,44.868 234.403,41.294 C237.818,37.72 242.575,34.922 242.788,29.419" id="Fill-5" fill="#95B8BF"></path>
                    <path d="M174.076,41.331 C174.076,41.331 198.736,45.105 204.702,42.942 C210.668,40.779 212.137,43.129 209.4,47.173 C206.664,51.217 203.089,48.423 207.919,53.793 C212.749,59.163 217.448,64.029 217.459,64.129 C217.469,64.231 207.088,69.038 207.348,70.129 C207.607,71.22 207.747,83.634 199.559,73.948 C191.368,64.262 201.427,71.306 193.289,67.816 C188.944,65.953 179.583,64.069 180.989,59.329 C182.395,54.586 189.128,54.178 181.863,53.004 C174.597,51.83 174.352,56.356 172.395,50.779 C170.438,45.202 165.314,40.176 174.076,41.331" id="Fill-6" fill="#95B8BF"></path>
                    <path d="M34.694,25.22 C34.694,25.22 42.767,16.55 46.207,19.986 C49.647,23.423 49.891,27.22 49.891,27.22 L41.522,32.673 L34.694,25.22" id="Fill-7" fill="#95B8BF"></path>
                    <path d="M68.437,19.181 C68.437,19.181 77.564,22.134 79.751,25.927 C81.938,29.72 82.636,29.359 85.209,32.673 C87.781,35.986 92.113,38.22 89.773,42.72 C87.433,47.22 79.773,45.72 74.61,45.72 C69.447,45.72 64.94,42.995 63.108,40.589 C61.277,38.183 61.795,26.134 59.876,25.927 C57.956,25.72 66.427,28.634 68.437,25.927 C70.446,23.22 63.673,17.265 68.437,19.181" id="Fill-8" fill="#95B8BF"></path>
                    <path d="M35.372,33 C35.372,33 38.369,36 42.866,33 C47.362,30 52.358,20 58.354,23.5 C64.349,27 65.349,30.666 68.346,34.333 C71.344,38 73.842,41 76.34,42 C78.838,43 83.335,42 83.335,42 C83.335,42 89.33,35.5 94.326,39 C99.323,42.5 98.823,45.5 102.82,47 C106.817,48.5 111.813,51.371 113.312,55.186 C114.811,59 114.311,58.5 125.802,61.5 C137.293,64.5 145.288,70 147.286,73.5 C149.284,77 153.281,77.944 159.776,79.972 C166.271,82 173.766,85.546 173.766,85.546 C173.766,85.546 177.763,87.985 184.258,94.993 C190.753,102 162.774,128.467 162.274,129.984 C161.775,131.5 32.874,98.714 32.874,98.714" id="Fill-9" fill="#47828F"></path>
                    <path d="M336.243,17 L307.019,17 C307.019,17 295.527,24.5 295.027,26 C294.528,27.5 291.53,23 288.033,26 C284.536,29 275.043,33 272.545,34.5 C270.047,36 258.556,38 254.559,40.5 C250.562,43 237.072,51.5 235.573,53 C234.074,54.5 230.577,50.871 225.081,55.186 C219.585,59.5 210.093,60 207.095,62.5 C204.097,65 204.597,65 197.103,67 C189.608,69 184.618,67.778 183.116,71.389 C181.614,75 174.619,73.516 171.622,79.008 C168.624,84.5 154.303,93.713 155.218,94.857 C156.134,96 161.561,150.93 161.561,150.93 L336.243,19.814 L336.243,17" id="Fill-10" fill="#4E8A94"></path>
                    <g id="Group-14" transform="translate(0.000000, 10.000000)">
                        <mask id="mask-2" fill="white">
                            <use xlink:href="#path-1"></use>
                        </mask>
                        <g id="Clip-12"></g>
                        <polyline id="Fill-11" fill="#44787F" mask="url(#mask-2)" points="170.162 0.251 170.557 20.388 -0.001 23.72 -0.001 0.251 170.162 0.251"></polyline>
                        <polyline id="Fill-13" fill="#44787F" mask="url(#mask-2)" points="170.557 20.388 171.267 56.833 171.267 159.232 -0.001 159.232 -0.001 23.72 170.557 20.388"></polyline>
                    </g>
                    <g id="Group-19" transform="translate(178.000000, 0.000000)">
                        <mask id="mask-4" fill="white">
                            <use xlink:href="#path-3"></use>
                        </mask>
                        <g id="Clip-16"></g>
                        <polyline id="Fill-15" fill="#44787F" mask="url(#mask-4)" points="158.242 22.06 0.952 25.134 0.952 -0.558 158.242 -0.558 158.242 22.06"></polyline>
                        <polyline id="Fill-17" fill="#44787F" mask="url(#mask-4)" points="158.242 158.712 0.952 161.787 0.952 25.134 158.242 22.06 158.242 158.712"></polyline>
                        <polyline id="Fill-18" fill="#44787F" mask="url(#mask-4)" points="0.952 161.787 158.242 158.712 158.242 170.001 0.952 170.001 0.952 161.787"></polyline>
                    </g>
                </g>
            </g>
        </g>
    </g>
</svg>